<?xml version="1.0" encoding="UTF-8" standalone="no"?>
<!-- Uploaded to: SVG Repo, www.svgrepo.com, Generator: SVG Repo Mixer Tools -->

<svg
   width="800px"
   height="800px"
   viewBox="0 0 64 64"
   data-name="Layer 1"
   id="Layer_1"
   version="1.1"
   sodipodi:docname="knowledge.svg"
   inkscape:version="1.4.2 (ebf0e940d0, 2025-05-08)"
   xmlns:inkscape="http://www.inkscape.org/namespaces/inkscape"
   xmlns:sodipodi="http://sodipodi.sourceforge.net/DTD/sodipodi-0.dtd"
   xmlns="http://www.w3.org/2000/svg"
   xmlns:svg="http://www.w3.org/2000/svg">
  <sodipodi:namedview
     id="namedview16"
     pagecolor="#ffffff"
     bordercolor="#000000"
     borderopacity="0.25"
     inkscape:showpageshadow="2"
     inkscape:pageopacity="0.0"
     inkscape:pagecheckerboard="0"
     inkscape:deskcolor="#d1d1d1"
     inkscape:zoom="0.99083389"
     inkscape:cx="179.14204"
     inkscape:cy="151.38764"
     inkscape:window-width="2844"
     inkscape:window-height="1859"
     inkscape:window-x="17"
     inkscape:window-y="42"
     inkscape:window-maximized="1"
     inkscape:current-layer="Layer_1" />
  <defs
     id="defs1">
    <style
       id="style1">
      .cls-1 {
        fill: #e7ecef;
      }

      .cls-2 {
        fill: #8b8c89;
      }

      .cls-3 {
        fill: #bc6c25;
      }

      .cls-4 {
        fill: #a3cef1;
      }

      .cls-5 {
        fill: #dda15e;
      }

      .cls-6 {
        fill: #6096ba;
      }

      .cls-7 {
        fill: #274c77;
      }
    </style>
  </defs>
  <path
     class="cls-5"
     d="m 20.335757,44.28115 -2.702219,1.161953 c -0.909746,0.387319 -1.93659,0.387319 -2.837329,0 L 12.09399,44.28115 C 10.769903,43.713684 9.9142001,42.407611 9.9142001,40.966428 v -4.827964 c 0,-2.981448 2.4229899,-5.404438 5.4044379,-5.404438 h 1.801479 c 2.981447,0 5.404437,2.42299 5.404437,5.404438 v 4.827964 c 0,1.441183 -0.855702,2.747256 -2.17979,3.314722 z"
     id="path2"
     style="stroke-width:0.900743" />
  <path
     class="cls-7"
     d="M 28.046088,49.649557 C 26.406741,47.983189 24.12787,46.947338 21.614807,46.947338 h -2.702219 c 0,1.495228 -1.206991,2.702219 -2.702218,2.702219 -1.495227,0 -2.702219,-1.206991 -2.702219,-2.702219 h -2.702218 c -4.9720832,0 -9.0073961,4.035314 -9.0073961,9.007396 v 6.305177 H 21.614807 l 3.602958,-12.610354 z"
     id="path3"
     style="stroke-width:0.900743" />
  <path
     class="cls-7"
     d="m 7.2029747,37.696743 c -0.2612148,0.153126 -0.576474,0.2432 -0.9007398,0.2432 -0.990814,0 -1.8014794,-0.810665 -1.8014794,-1.801479 0,-0.990814 0.8106654,-1.801479 1.8014794,-1.801479 0.3783109,0 0.7295987,0.117096 1.0268434,0.324266"
     id="path5"
     style="stroke-width:0.900743" />
  <path
     class="cls-7"
     d="m 25.217765,37.696743 c 0.261215,0.153126 0.576474,0.2432 0.90074,0.2432 0.990813,0 1.801479,-0.810665 1.801479,-1.801479 0,-0.990814 -0.810666,-1.801479 -1.801479,-1.801479 -0.378311,0 -0.729599,0.117096 -1.026843,0.324266"
     id="path6"
     style="stroke-width:0.900743" />
  <path
     class="cls-3"
     d="m 13.508151,44.884645 1.27905,0.549451 c 0.909747,0.396326 1.936591,0.396326 2.846337,0 l 1.27905,-0.549451 v 2.062693 c 0,1.495228 -1.206991,2.702219 -2.702218,2.702219 -1.495227,0 -2.702219,-1.206991 -2.702219,-2.702219 z"
     id="path7"
     style="stroke-width:0.900743" />
  <polyline
     class="cls-2"
     points="26.5 51 30.5 37 52.5 37 48.5 51"
     id="polyline7"
     transform="matrix(0.90073955,0,0,0.90073955,-8.7181499,16.322194)" />
  <path
     class="cls-7"
     d="m 21.975103,33.778527 h -0.009 c -0.513422,-0.20717 -1.10791,-0.342282 -1.855524,-0.342282 -3.900202,0 -3.900202,3.602959 -7.809411,3.602959 -1.017836,0 -1.774457,-0.243201 -2.3959677,-0.603495 v -0.297245 c 0,-2.981448 2.4229887,-5.404438 5.4044377,-5.404438 h 1.801479 c 2.134753,0 3.981269,1.243022 4.854986,3.044501 z"
     id="path8"
     style="stroke-width:0.900743" />
  <path
     class="cls-1"
     d="m 22.515547,40.281866 v -4.143402 c 0,-2.981448 -2.42299,-5.404438 -5.404438,-5.404438 H 15.30963 c -2.981448,0 -5.4044369,2.42299 -5.4044369,5.404438 v 3.602959 H 8.1037138 c -0.4954067,0 -0.9007391,-0.405333 -0.9007391,-0.90074 v -2.702219 c 0,-4.972082 4.0353123,-9.007396 9.0073953,-9.007396 2.486041,0 4.73789,1.008829 6.368228,2.639167 1.630339,1.630339 2.639167,3.882188 2.639167,6.368229 v 2.864352 c 0,0.432354 -0.306251,0.801658 -0.720591,0.882725 z"
     id="path9"
     style="stroke-width:0.900743" />
  <path
     class="cls-4"
     d="m 26.861063,55.053995 c 0.495407,0 0.90074,0.405333 0.90074,0.900739 0,0.495406 -0.405333,0.900739 -0.90074,0.900739 z"
     id="path10"
     style="stroke-width:0.900743" />
  <rect
     class="cls-4"
     height="1.8014791"
     width="35.607674"
     x="-0.0029422366"
     y="62.259911"
     id="rect11"
     style="stroke-width:0.800918" />
  <path
     class="cls-6"
     d="m 16.21037,41.542901 v 0 c -0.09908,-0.486399 0.216178,-0.963791 0.702577,-1.062873 l 7.404078,-1.477212 v -2.576115 c 0,-4.314543 -3.251669,-8.088642 -7.548197,-8.376878 -4.719875,-0.315259 -8.6651142,3.431817 -8.6651142,8.088641 v 2.702219 h 1.8014793 v 1.801479 H 8.1037138 c -0.9908134,0 -1.8014789,-0.810666 -1.8014789,-1.801479 v -2.413982 c 0,-5.15223 3.8191351,-9.673943 8.9533511,-10.151335 5.890837,-0.558459 10.862919,4.08035 10.862919,9.863098 v 2.864352 c 0,0.855703 -0.603496,1.594309 -1.450191,1.76545 l -7.404079,1.477212 c -0.4864,0.09908 -0.963791,-0.216178 -1.062872,-0.702577 z"
     id="path12"
     style="stroke-width:0.900743" />
</svg>
