<?xml version="1.0" encoding="UTF-8" standalone="no"?>
<!-- Created with Inkscape (http://www.inkscape.org/) -->

<svg
   width="80mm"
   height="80mm"
   viewBox="0 0 80 80"
   version="1.1"
   id="svg1"
   inkscape:version="1.4.2 (ebf0e940d0, 2025-05-08)"
   sodipodi:docname="know.svg"
   xmlns:inkscape="http://www.inkscape.org/namespaces/inkscape"
   xmlns:sodipodi="http://sodipodi.sourceforge.net/DTD/sodipodi-0.dtd"
   xmlns="http://www.w3.org/2000/svg"
   xmlns:svg="http://www.w3.org/2000/svg">
  <sodipodi:namedview
     id="namedview1"
     pagecolor="#ffffff"
     bordercolor="#000000"
     borderopacity="0.25"
     inkscape:showpageshadow="2"
     inkscape:pageopacity="0.0"
     inkscape:pagecheckerboard="0"
     inkscape:deskcolor="#d1d1d1"
     inkscape:document-units="mm"
     inkscape:zoom="1.2772444"
     inkscape:cx="258.76018"
     inkscape:cy="443.92443"
     inkscape:window-width="1416"
     inkscape:window-height="1859"
     inkscape:window-x="1445"
     inkscape:window-y="42"
     inkscape:window-maximized="1"
     inkscape:current-layer="layer1" />
  <defs
     id="defs1" />
  <g
     inkscape:label="Layer 1"
     inkscape:groupmode="layer"
     id="layer1">
    <path
       class="cls-5"
       d="m 42.23107,49.969571 -4.097858,1.762077 c -1.37961,0.587361 -2.936797,0.587361 -4.302748,0 l -4.097857,-1.762077 c -2.00795,-0.860549 -3.305606,-2.841181 -3.305606,-5.026704 v -7.321505 c 0,-4.521302 3.674413,-8.195715 8.195715,-8.195715 h 2.731905 c 4.521299,0 8.195712,3.674413 8.195712,8.195715 v 7.321505 c 0,2.185523 -1.297653,4.166155 -3.305605,5.026704 z"
       id="path2"
       style="fill:#dda15e;stroke-width:1.36595" />
    <path
       class="cls-7"
       d="m 53.923621,58.110645 c -2.486034,-2.527011 -5.941893,-4.097857 -9.7529,-4.097857 h -4.097857 c 0,2.267481 -1.830376,4.097857 -4.097856,4.097857 -2.267479,0 -4.097857,-1.830376 -4.097857,-4.097857 h -4.097856 c -7.540057,0 -13.659522,6.119468 -13.659522,13.659521 v 9.561672 H 44.170721 L 49.63453,58.110645 Z"
       id="path3"
       style="fill:#274c77;stroke-width:1.36595" />
    <path
       class="cls-7"
       d="m 22.315486,39.984459 c -0.396126,0.232213 -0.87421,0.368807 -1.365952,0.368807 -1.502547,0 -2.731905,-1.229355 -2.731905,-2.731904 0,-1.502548 1.229358,-2.731904 2.731905,-2.731904 0.5737,0 1.106421,0.177573 1.557186,0.491742"
       id="path5"
       style="fill:#274c77;stroke-width:1.36595" />
    <path
       class="cls-7"
       d="m 49.63453,39.984459 c 0.396127,0.232213 0.87421,0.368807 1.365953,0.368807 1.502547,0 2.731905,-1.229355 2.731905,-2.731904 0,-1.502548 -1.229358,-2.731904 -2.731905,-2.731904 -0.573701,0 -1.106421,0.177573 -1.557186,0.491742"
       id="path6"
       style="fill:#274c77;stroke-width:1.36595" />
    <path
       class="cls-3"
       d="m 31.877151,50.884759 1.939653,0.833231 c 1.379611,0.601019 2.936798,0.601019 4.316408,0 l 1.939652,-0.833231 v 3.128029 c 0,2.267481 -1.830376,4.097857 -4.097856,4.097857 -2.267479,0 -4.097857,-1.830376 -4.097857,-4.097857 z"
       id="path7"
       style="fill:#bc6c25;stroke-width:1.36595" />
    <polyline
       class="cls-2"
       points="26.5 51 30.5 37 52.5 37 48.5 51"
       id="polyline7"
       transform="matrix(1.3659523,0,0,1.3659523,-1.8285567,7.5704139)"
       style="fill:#8b8c89" />
    <path
       class="cls-7"
       d="m 44.717103,34.042569 h -0.01365 C 43.924859,33.7284 43.023331,33.523506 41.88959,33.523506 c -5.914573,0 -5.914573,5.463809 -11.842805,5.463809 -1.543526,0 -2.690925,-0.36881 -3.633433,-0.915187 v -0.450766 c 0,-4.521302 3.67441,-8.195715 8.195714,-8.195715 h 2.731904 c 3.237307,0 6.037509,1.885017 7.362483,4.616922 z"
       id="path8"
       style="fill:#274c77;stroke-width:1.36595" />
    <path
       class="cls-1"
       d="m 45.536675,43.904743 v -6.283381 c 0,-4.521302 -3.674413,-8.195715 -8.195715,-8.195715 h -2.731905 c -4.521302,0 -8.195712,3.674413 -8.195712,8.195715 v 5.46381 h -2.731905 c -0.751274,0 -1.365952,-0.614679 -1.365952,-1.365953 v -4.097857 c 0,-7.540056 6.119465,-13.659523 13.659522,-13.659523 3.770028,0 7.184909,1.529868 9.657282,4.00224 2.472374,2.472374 4.00224,5.887255 4.00224,9.657283 v 4.343729 c 0,0.655656 -0.464423,1.215697 -1.092761,1.338633 z"
       id="path9"
       style="fill:#e7ecef;stroke-width:1.36595" />
    <path
       class="cls-4"
       d="m 52.126556,66.306361 c 0.751274,0 1.365953,0.614677 1.365953,1.365948 0,0.751273 -0.614679,1.365955 -1.365953,1.365955 z"
       id="path10"
       style="fill:#a3cef1;stroke-width:1.36595" />
    <rect
       class="cls-4"
       height="2.7319045"
       width="53.998272"
       x="11.387868"
       y="77.233978"
       id="rect11"
       style="fill:#a3cef1;stroke-width:1.21458" />
    <path
       class="cls-6"
       d="m 35.975008,45.817075 v 0 c -0.150252,-0.737614 0.32783,-1.461568 1.065444,-1.611823 l 11.228125,-2.240161 v -3.906623 c 0,-6.542912 -4.931086,-12.266253 -11.446679,-12.703357 -7.157589,-0.478083 -13.14046,5.204277 -13.14046,12.266251 v 4.097857 h 2.731905 v 2.731905 h -2.731905 c -1.502548,0 -2.731904,-1.229357 -2.731904,-2.731905 v -3.660751 c 0,-7.813247 5.791636,-14.670328 13.577565,-15.394283 8.933328,-0.846891 16.473384,6.187763 16.473384,14.957177 v 4.343729 c 0,1.297655 -0.915189,2.417736 -2.199184,2.677267 l -11.228127,2.24016 c -0.737615,0.150253 -1.461568,-0.327829 -1.611823,-1.065443 z"
       id="path12"
       style="fill:#6096ba;stroke-width:1.36595" />
  </g>
</svg>
